<mxfile host="Electron" modified="2024-01-03T16:42:25.584Z" agent="Mozilla/5.0 (Windows NT 10.0; Win64; x64) AppleWebKit/537.36 (KHTML, like Gecko) draw.io/22.0.0 Chrome/114.0.5735.289 Electron/25.8.3 Safari/537.36" etag="_tbBZaJR8YIY9J8PRSsK" version="22.0.0" type="device">
  <diagram name="Page-1" id="XQAXtMAQHzPJaxeUQY96">
    <mxGraphModel dx="574" dy="334" grid="1" gridSize="10" guides="1" tooltips="1" connect="1" arrows="1" fold="1" page="1" pageScale="1" pageWidth="1654" pageHeight="2336" math="0" shadow="0">
      <root>
        <mxCell id="0" />
        <mxCell id="1" parent="0" />
        <mxCell id="8ZSdT7PTFu4EOdGAyj04-42" value="" style="rounded=0;whiteSpace=wrap;html=1;strokeColor=#FF0000;fillColor=#FF0000;" parent="1" vertex="1">
          <mxGeometry x="601" y="200" width="399" height="120" as="geometry" />
        </mxCell>
        <mxCell id="8ZSdT7PTFu4EOdGAyj04-23" value="" style="rounded=0;whiteSpace=wrap;html=1;fillColor=#1ba1e2;fontColor=#ffffff;strokeColor=#3399FF;" parent="1" vertex="1">
          <mxGeometry x="520" y="256" width="320" height="64" as="geometry" />
        </mxCell>
        <mxCell id="8ZSdT7PTFu4EOdGAyj04-20" value="" style="endArrow=none;html=1;rounded=0;strokeColor=#3399FF;fillColor=#60a917;" parent="1" target="8ZSdT7PTFu4EOdGAyj04-19" edge="1">
          <mxGeometry width="50" height="50" relative="1" as="geometry">
            <mxPoint x="520" y="310" as="sourcePoint" />
            <mxPoint x="520.04" y="250" as="targetPoint" />
          </mxGeometry>
        </mxCell>
        <mxCell id="8ZSdT7PTFu4EOdGAyj04-8" value="" style="endArrow=none;html=1;rounded=0;" parent="1" edge="1">
          <mxGeometry width="50" height="50" relative="1" as="geometry">
            <mxPoint x="599.5799999999999" y="340" as="sourcePoint" />
            <mxPoint x="599.5799999999999" y="300" as="targetPoint" />
          </mxGeometry>
        </mxCell>
        <mxCell id="8ZSdT7PTFu4EOdGAyj04-1" value="" style="endArrow=none;html=1;rounded=0;strokeWidth=8;strokeColor=#FFFFFF;" parent="1" edge="1">
          <mxGeometry width="50" height="50" relative="1" as="geometry">
            <mxPoint x="400" y="320" as="sourcePoint" />
            <mxPoint x="1000" y="320" as="targetPoint" />
          </mxGeometry>
        </mxCell>
        <mxCell id="8ZSdT7PTFu4EOdGAyj04-3" value="&lt;font style=&quot;font-size: 22px;&quot;&gt;2&lt;/font&gt;" style="text;html=1;strokeColor=none;fillColor=none;align=center;verticalAlign=middle;whiteSpace=wrap;rounded=0;" parent="1" vertex="1">
          <mxGeometry x="370" y="340" width="60" height="30" as="geometry" />
        </mxCell>
        <mxCell id="8ZSdT7PTFu4EOdGAyj04-4" value="" style="endArrow=none;html=1;rounded=0;" parent="1" edge="1">
          <mxGeometry width="50" height="50" relative="1" as="geometry">
            <mxPoint x="399.58" y="340" as="sourcePoint" />
            <mxPoint x="399.58" y="300" as="targetPoint" />
          </mxGeometry>
        </mxCell>
        <mxCell id="8ZSdT7PTFu4EOdGAyj04-5" value="&lt;font style=&quot;font-size: 22px;&quot;&gt;4&lt;/font&gt;" style="text;html=1;strokeColor=none;fillColor=none;align=center;verticalAlign=middle;whiteSpace=wrap;rounded=0;" parent="1" vertex="1">
          <mxGeometry x="770" y="340" width="60" height="30" as="geometry" />
        </mxCell>
        <mxCell id="8ZSdT7PTFu4EOdGAyj04-6" value="" style="endArrow=none;html=1;rounded=0;" parent="1" edge="1">
          <mxGeometry width="50" height="50" relative="1" as="geometry">
            <mxPoint x="799.5799999999999" y="340" as="sourcePoint" />
            <mxPoint x="799.5799999999999" y="300" as="targetPoint" />
          </mxGeometry>
        </mxCell>
        <mxCell id="8ZSdT7PTFu4EOdGAyj04-7" value="&lt;font style=&quot;font-size: 22px;&quot;&gt;3&lt;/font&gt;" style="text;html=1;strokeColor=none;fillColor=none;align=center;verticalAlign=middle;whiteSpace=wrap;rounded=0;" parent="1" vertex="1">
          <mxGeometry x="570" y="340" width="60" height="30" as="geometry" />
        </mxCell>
        <mxCell id="8ZSdT7PTFu4EOdGAyj04-9" value="&lt;font style=&quot;font-size: 20px;&quot;&gt;LIMIAR&lt;/font&gt;" style="text;html=1;strokeColor=none;fillColor=none;align=center;verticalAlign=middle;whiteSpace=wrap;rounded=0;" parent="1" vertex="1">
          <mxGeometry x="570" y="140" width="60" height="30" as="geometry" />
        </mxCell>
        <mxCell id="8ZSdT7PTFu4EOdGAyj04-10" value="&lt;font color=&quot;#ff33ff&quot; style=&quot;font-size: 11px;&quot;&gt;3,38&lt;/font&gt;" style="text;html=1;strokeColor=none;fillColor=none;align=center;verticalAlign=middle;whiteSpace=wrap;rounded=0;" parent="1" vertex="1">
          <mxGeometry x="650" y="330" width="60" height="30" as="geometry" />
        </mxCell>
        <mxCell id="8ZSdT7PTFu4EOdGAyj04-11" value="" style="endArrow=none;html=1;rounded=0;strokeColor=#FF33FF;fillColor=#1ba1e2;" parent="1" edge="1">
          <mxGeometry width="50" height="50" relative="1" as="geometry">
            <mxPoint x="679.76" y="330" as="sourcePoint" />
            <mxPoint x="680" y="310" as="targetPoint" />
          </mxGeometry>
        </mxCell>
        <mxCell id="8ZSdT7PTFu4EOdGAyj04-13" value="&lt;font color=&quot;#3399ff&quot; style=&quot;font-size: 11px;&quot;&gt;2,58&lt;/font&gt;" style="text;html=1;strokeColor=none;fillColor=none;align=center;verticalAlign=middle;whiteSpace=wrap;rounded=0;" parent="1" vertex="1">
          <mxGeometry x="490" y="330" width="60" height="30" as="geometry" />
        </mxCell>
        <mxCell id="8ZSdT7PTFu4EOdGAyj04-14" value="" style="endArrow=none;html=1;rounded=0;strokeColor=#3399FF;fillColor=#60a917;" parent="1" edge="1">
          <mxGeometry width="50" height="50" relative="1" as="geometry">
            <mxPoint x="519.76" y="330" as="sourcePoint" />
            <mxPoint x="520" y="310" as="targetPoint" />
          </mxGeometry>
        </mxCell>
        <mxCell id="8ZSdT7PTFu4EOdGAyj04-18" value="" style="endArrow=none;html=1;rounded=0;strokeColor=#2D7600;fillColor=#60a917;" parent="1" edge="1">
          <mxGeometry width="50" height="50" relative="1" as="geometry">
            <mxPoint x="679.8" y="310" as="sourcePoint" />
            <mxPoint x="679.84" y="250" as="targetPoint" />
          </mxGeometry>
        </mxCell>
        <mxCell id="8ZSdT7PTFu4EOdGAyj04-19" value="" style="ellipse;whiteSpace=wrap;html=1;aspect=fixed;fillColor=#1ba1e2;fontColor=#ffffff;strokeColor=#006EAF;" parent="1" vertex="1">
          <mxGeometry x="515" y="250" width="10" height="10" as="geometry" />
        </mxCell>
        <mxCell id="8ZSdT7PTFu4EOdGAyj04-21" value="" style="ellipse;whiteSpace=wrap;html=1;aspect=fixed;fillColor=#1ba1e2;fontColor=#ffffff;strokeColor=#006EAF;" parent="1" vertex="1">
          <mxGeometry x="835" y="250" width="10" height="10" as="geometry" />
        </mxCell>
        <mxCell id="8ZSdT7PTFu4EOdGAyj04-22" value="" style="endArrow=none;html=1;rounded=0;strokeColor=#3399FF;fillColor=#60a917;entryX=1;entryY=0.5;entryDx=0;entryDy=0;exitX=0;exitY=0.5;exitDx=0;exitDy=0;" parent="1" edge="1">
          <mxGeometry width="50" height="50" relative="1" as="geometry">
            <mxPoint x="755" y="256" as="sourcePoint" />
            <mxPoint x="525" y="256" as="targetPoint" />
          </mxGeometry>
        </mxCell>
        <mxCell id="8ZSdT7PTFu4EOdGAyj04-2" value="" style="endArrow=none;html=1;rounded=0;strokeWidth=2;fillColor=#e51400;strokeColor=#B20000;entryX=0.5;entryY=1;entryDx=0;entryDy=0;" parent="1" source="8ZSdT7PTFu4EOdGAyj04-38" target="8ZSdT7PTFu4EOdGAyj04-9" edge="1">
          <mxGeometry width="50" height="50" relative="1" as="geometry">
            <mxPoint x="599.76" y="316" as="sourcePoint" />
            <mxPoint x="600" y="190" as="targetPoint" />
          </mxGeometry>
        </mxCell>
        <mxCell id="8ZSdT7PTFu4EOdGAyj04-37" value="&lt;font color=&quot;#ff33ff&quot; style=&quot;font-size: 11px;&quot;&gt;valor usabilidade&lt;/font&gt;" style="text;html=1;strokeColor=none;fillColor=none;align=center;verticalAlign=middle;whiteSpace=wrap;rounded=0;" parent="1" vertex="1">
          <mxGeometry x="650" y="150" width="60" height="30" as="geometry" />
        </mxCell>
        <mxCell id="8ZSdT7PTFu4EOdGAyj04-39" value="" style="endArrow=none;html=1;rounded=0;strokeWidth=2;fillColor=#e51400;strokeColor=#B20000;" parent="1" target="8ZSdT7PTFu4EOdGAyj04-38" edge="1">
          <mxGeometry width="50" height="50" relative="1" as="geometry">
            <mxPoint x="599.76" y="316" as="sourcePoint" />
            <mxPoint x="600" y="190" as="targetPoint" />
          </mxGeometry>
        </mxCell>
        <mxCell id="8ZSdT7PTFu4EOdGAyj04-38" value="" style="ellipse;whiteSpace=wrap;html=1;aspect=fixed;fillColor=#f8cecc;strokeColor=#b85450;" parent="1" vertex="1">
          <mxGeometry x="595" y="195" width="10" height="10" as="geometry" />
        </mxCell>
        <mxCell id="8ZSdT7PTFu4EOdGAyj04-40" value="" style="endArrow=none;html=1;rounded=0;strokeWidth=4;fillColor=#e51400;strokeColor=#B20000;entryX=1;entryY=0.5;entryDx=0;entryDy=0;" parent="1" target="8ZSdT7PTFu4EOdGAyj04-38" edge="1">
          <mxGeometry width="50" height="50" relative="1" as="geometry">
            <mxPoint x="1000" y="200" as="sourcePoint" />
            <mxPoint x="610" y="220" as="targetPoint" />
          </mxGeometry>
        </mxCell>
        <mxCell id="2140BH6GazmXFtKcKDHI-2" value="&lt;font style=&quot;font-size: 22px;&quot;&gt;5&lt;/font&gt;" style="text;html=1;strokeColor=none;fillColor=none;align=center;verticalAlign=middle;whiteSpace=wrap;rounded=0;" vertex="1" parent="1">
          <mxGeometry x="970" y="340" width="60" height="30" as="geometry" />
        </mxCell>
        <mxCell id="2140BH6GazmXFtKcKDHI-3" value="" style="endArrow=none;html=1;rounded=0;" edge="1" parent="1">
          <mxGeometry width="50" height="50" relative="1" as="geometry">
            <mxPoint x="999.5799999999999" y="340" as="sourcePoint" />
            <mxPoint x="999.5799999999999" y="300" as="targetPoint" />
          </mxGeometry>
        </mxCell>
        <mxCell id="2140BH6GazmXFtKcKDHI-4" value="&lt;font color=&quot;#3399ff&quot; style=&quot;font-size: 11px;&quot;&gt;4,18&lt;/font&gt;" style="text;html=1;strokeColor=none;fillColor=none;align=center;verticalAlign=middle;whiteSpace=wrap;rounded=0;" vertex="1" parent="1">
          <mxGeometry x="810" y="330" width="60" height="30" as="geometry" />
        </mxCell>
        <mxCell id="2140BH6GazmXFtKcKDHI-5" value="" style="endArrow=none;html=1;rounded=0;strokeColor=#3399FF;fillColor=#60a917;entryX=0.5;entryY=1;entryDx=0;entryDy=0;" edge="1" parent="1" target="8ZSdT7PTFu4EOdGAyj04-21">
          <mxGeometry width="50" height="50" relative="1" as="geometry">
            <mxPoint x="839.76" y="330" as="sourcePoint" />
            <mxPoint x="840" y="310" as="targetPoint" />
          </mxGeometry>
        </mxCell>
        <mxCell id="2140BH6GazmXFtKcKDHI-8" value="" style="endArrow=none;html=1;rounded=0;strokeWidth=2;fillColor=#e51400;strokeColor=#B20000;" edge="1" parent="1" source="2140BH6GazmXFtKcKDHI-9">
          <mxGeometry width="50" height="50" relative="1" as="geometry">
            <mxPoint x="999.71" y="315.5" as="sourcePoint" />
            <mxPoint x="1000" y="200" as="targetPoint" />
          </mxGeometry>
        </mxCell>
        <mxCell id="2140BH6GazmXFtKcKDHI-10" value="" style="endArrow=none;html=1;rounded=0;strokeWidth=2;fillColor=#e51400;strokeColor=#B20000;" edge="1" parent="1" target="2140BH6GazmXFtKcKDHI-9">
          <mxGeometry width="50" height="50" relative="1" as="geometry">
            <mxPoint x="999.71" y="315.5" as="sourcePoint" />
            <mxPoint x="1000" y="200" as="targetPoint" />
          </mxGeometry>
        </mxCell>
        <mxCell id="2140BH6GazmXFtKcKDHI-9" value="" style="ellipse;whiteSpace=wrap;html=1;aspect=fixed;fillColor=#f8cecc;strokeColor=#b85450;" vertex="1" parent="1">
          <mxGeometry x="995" y="195" width="10" height="10" as="geometry" />
        </mxCell>
        <mxCell id="8ZSdT7PTFu4EOdGAyj04-36" value="" style="endArrow=none;html=1;rounded=0;strokeColor=#FF33FF;fillColor=#1ba1e2;strokeWidth=4;fontColor=#ff25a7;labelBackgroundColor=#FF33FF;exitX=0.5;exitY=1;exitDx=0;exitDy=0;" parent="1" edge="1" source="8ZSdT7PTFu4EOdGAyj04-37">
          <mxGeometry width="50" height="50" relative="1" as="geometry">
            <mxPoint x="680" y="190" as="sourcePoint" />
            <mxPoint x="679.8899999999999" y="316" as="targetPoint" />
          </mxGeometry>
        </mxCell>
        <mxCell id="2140BH6GazmXFtKcKDHI-13" value="" style="endArrow=none;html=1;rounded=0;strokeWidth=2;fillColor=#e51400;strokeColor=#B20000;entryX=0.5;entryY=1;entryDx=0;entryDy=0;" edge="1" parent="1">
          <mxGeometry width="50" height="50" relative="1" as="geometry">
            <mxPoint x="1000" y="195" as="sourcePoint" />
            <mxPoint x="1000" y="180" as="targetPoint" />
          </mxGeometry>
        </mxCell>
        <mxCell id="2140BH6GazmXFtKcKDHI-14" value="&lt;span style=&quot;font-size: 20px;&quot;&gt;VALOR MÁX&lt;/span&gt;" style="text;html=1;strokeColor=none;fillColor=none;align=center;verticalAlign=middle;whiteSpace=wrap;rounded=0;" vertex="1" parent="1">
          <mxGeometry x="970" y="140" width="60" height="30" as="geometry" />
        </mxCell>
      </root>
    </mxGraphModel>
  </diagram>
</mxfile>
